<?xml version="1.0" encoding="UTF-8"?>
<svg id="Capa_1" xmlns="http://www.w3.org/2000/svg" viewBox="0 0 1080 1080">
  <defs>
    <style>
      .cls-1 {
        font-family: Lato-Light, Lato;
        font-size: 71.5px;
        font-weight: 300;
      }

      .cls-1, .cls-2 {
        fill: #fbcf00;
      }
    </style>
  </defs>
  <g>
    <g>
      <path class="cls-2" d="M277.4,412.6v62.5c9.3-5.7,18.9-8.6,28.9-8.6,16.2,0,29.4,5.4,39.6,16.2,10.2,10.8,15.3,24.8,15.3,42s-4.9,31.4-14.7,42.3c-9.8,11-22.4,16.5-37.7,16.5s-21.6-3.6-31.4-10.7v10.8h-35.4v-171h35.4ZM277.4,498.1v52.2c7.1,6.4,14.1,9.5,21,9.5s15-3.2,19.8-9.5c4.8-6.3,7.2-15,7.2-26.1s-2.5-19.2-7.6-25.1c-5-5.9-11.7-8.9-19.9-8.9s-13.3,2.6-20.5,7.9Z"/>
      <path class="cls-2" d="M383.5,432.3c0-5.4,1.9-10,5.7-13.8,3.8-3.8,8.4-5.7,13.7-5.7s10,1.9,13.8,5.7c3.8,3.8,5.7,8.4,5.7,13.8s-1.9,9.9-5.7,13.8c-3.8,3.9-8.4,5.8-13.8,5.8s-9.9-1.9-13.7-5.8c-3.8-3.9-5.7-8.4-5.7-13.8ZM420.8,468.9v114.7h-35.4v-114.7h35.4Z"/>
      <path class="cls-2" d="M531.6,468.9v24.2h-41v46.3c0,5.6,1.5,9.9,4.6,13.2,3.1,3.2,7.3,4.8,12.7,4.8s15.2-2.2,23.7-6.5v25.6c-11.3,4.7-22.2,7-32.8,7s-24.5-3.6-32.2-10.7c-7.6-7.1-11.4-17.6-11.4-31.4v-48.2h-16.1v-6.9l47-52.6h4.4v35.4h41Z"/>
      <path class="cls-2" d="M590.3,468.9h16.1v24.2h-16.1v90.5h-35.4v-90.5h-16.1v-24.2h16.1v-5.6c0-15.8,4.4-28.2,13.3-37.1,8.9-8.9,21.1-13.6,36.2-13.6h21v29.7s-12.5-.1-15.6-.1c-13,0-19.5,6.6-19.5,19.7v7.1Z"/>
      <path class="cls-2" d="M659.5,412.6v171h-35.4v-171h35.4Z"/>
      <path class="cls-2" d="M747.5,466.5c17.6,0,32.6,5.2,44.8,15.5,12.3,10.3,18.4,24.7,18.4,43.2s-6.2,32.9-18.7,43c-12.5,10.2-27.3,15.3-44.5,15.3s-33.9-5.4-45.8-16.3c-11.9-10.8-17.8-24.9-17.8-42.3s6.1-31.8,18.2-42.4c12.1-10.6,27.3-16,45.4-16ZM747.5,562.5c16.9,0,25.4-12.8,25.4-38.3s-8.5-36.6-25.4-36.6-14.4,3.2-19,9.7c-4.6,6.4-6.8,15.7-6.8,27.7,0,25.1,8.6,37.6,25.8,37.6Z"/>
      <path class="cls-2" d="M906.6,522.3l-28.4,61.2h-16.4l-50.8-114.6h36.1l23.8,61.9,25.1-61.9h21.4l24.9,61.9,23.7-61.9h36.2l-50.7,114.6h-16.8l-28-61.2Z"/>
    </g>
    <g>
      <rect x="77.9" y="412.6" width="42.8" height="42.8"/>
      <polygon class="cls-2" points="163.5 455.4 120.7 455.4 120.7 498.2 163.5 498.2 163.5 540.9 120.7 540.9 77.9 540.9 77.9 583.7 120.7 583.7 163.5 583.7 206.3 583.7 206.3 540.9 206.3 498.2 206.3 455.4 163.5 455.4"/>
    </g>
  </g>
  <text class="cls-1" transform="translate(235 654.1)"><tspan x="0" y="0">Soluciones Informáticas</tspan></text>
</svg>